
<svg width="918px" height="310px" viewBox="0 0 918 310" version="1.1" xmlns="http://www.w3.org/2000/svg" xmlns:xlink="http://www.w3.org/1999/xlink">
    <!-- Generator: Sketch 49.1 (51147) - http://www.bohemiancoding.com/sketch -->
    <desc>Created with Sketch.</desc>
    <defs>
        <path d="M462.966155,173.571355 C467.196327,164.998061 472.999143,158.298025 480.374796,153.471044 C487.748164,148.644064 495.90002,146.23061 504.832324,146.23061 C515.781599,146.23061 524.591312,150.012889 531.264175,157.577559 C537.940302,165.14223 541.838196,174.471851 542.956144,185.566701 C542.956144,192.666629 541.922434,202.599044 547.11169,203.829886 C550.449442,204.828938 551.592491,204.474961 554.187849,203.829886 C554.222035,205.283188 554.872059,209.125982 555.317769,212.142256 C556.020186,216.895743 556.194428,218.969411 556.769053,221.732818 C548.079612,223.103042 543.33256,222.309204 537.237697,218.969411 C534.45427,231.072884 529.377331,232.89969 521.083676,240.356256 C512.79002,247.812823 507.486491,248.245088 497.223951,248.245088 C488.551382,248.245088 481.154521,246.155829 475.034382,241.977249 C468.915891,237.798669 464.287838,232.251327 461.149906,225.335057 C460.210902,223.264807 459.414667,221.142927 458.761175,218.969411 C458.203245,220.088845 457.539346,221.130064 456.769471,222.093071 C449.492909,231.026587 442.555747,237.114255 435.959859,240.356256 C429.362602,243.598258 421.220843,245.363322 411.53523,245.651499 C405.716704,250.550524 398.831328,253 390.88026,253 C383.362886,253 377.63124,251.270958 373.685811,247.812823 C369.741265,244.354688 367.788443,240.464344 367.826627,236.141675 C367.859719,232.395362 369.26065,229.153409 372.029101,226.415719 C374.797069,223.678028 378.852627,222.309204 384.196258,222.309204 C386.07375,222.309204 388.274686,222.489312 390.799176,222.849535 C393.323725,223.209757 395.235343,223.461909 396.534053,223.605998 C396.419291,219.859685 395.61699,216.329558 394.127339,213.015512 C392.638012,209.701466 390.751201,206.495534 388.466954,203.397622 C386.183167,200.299709 386.395212,200.840067 384.393853,198.534643 C378.641784,206.363586 372.994644,210.85416 368.54184,216.47363 C364.087445,222.093099 359.236927,227.424311 353.99007,232.467425 C351.365336,235.061026 348.607971,236.357808 345.718218,236.357808 C343.406415,236.357808 341.536122,235.529309 340.107397,233.872285 C338.678826,232.215262 337.976604,230.162025 338.000594,227.712513 C338.028818,224.830734 339.065862,222.165128 341.111518,219.715615 L343.960726,216.257497 C351.994035,206.459448 358.05832,198.390587 362.156279,192.050672 C364.646469,187.872092 367.581127,182.288728 370.959718,175.300414 C374.336817,168.312099 377.642459,161.071737 380.876712,153.579111 C383.667607,147.239196 389.38433,144.069286 398.027893,144.069286 C402.061556,144.069286 404.86791,144.429503 406.447095,145.149948 C408.026354,145.870393 408.810025,147.023088 408.798077,148.608066 C408.79156,149.4726 408.493063,150.841425 407.902527,152.714581 C407.311921,154.587738 406.505083,156.460866 405.481948,158.334023 C402.847609,163.521226 401.516142,167.915873 401.488159,171.518097 C401.47137,173.679432 402.209981,176.056864 403.704205,178.650465 C405.198681,181.244067 407.517869,184.48602 410.662245,188.376422 C415.234423,194.428158 418.696349,199.579262 421.047266,203.829886 C423.398834,208.080511 424.557153,212.72731 424.521768,217.770424 C424.511658,219.211314 424.353089,221.228529 424.04602,223.82213 C431.141689,221.08444 439.493089,213.808056 449.095976,201.992761 C452.114673,198.678044 456.45795,192.800423 457.857833,188.874611 C458.924498,183.41047 460.627353,178.309401 462.966155,173.571355 Z M795.399865,221.450254 C792.346157,231.573612 784.638086,236.298542 777.80748,240.896587 C770.527459,245.795612 762.261341,248.245088 753.010601,248.245088 C740.290834,248.245088 730.846112,242.481616 724.679562,230.954498 C718.517559,219.427381 715.421475,204.514397 715.387809,186.215098 C715.355469,168.636244 717.587855,148.608179 722.080107,126.1303 C726.565787,103.652421 733.208983,84.3447894 742.007915,68.2068252 C750.797636,52.0688611 761.291672,44 773.497247,44 C780.389808,44 785.823659,47.2059314 789.800192,53.6178904 C793.778362,60.0298494 795.794599,69.2153832 795.847735,81.1747673 C795.923919,98.3213543 791.262337,118.205333 781.852458,140.827301 C772.428721,163.449269 759.60064,185.854767 743.360767,208.044467 C744.387626,213.952115 746.059913,218.166654 748.377671,220.688211 C750.695805,223.209768 753.732588,224.470527 757.487833,224.470527 C763.409565,224.470527 768.60305,222.777507 773.067715,219.391417 C777.183411,216.269309 787.934654,205.801464 792.375685,163.848248 L792.355861,158.98242 C792.414881,156.732558 792.733281,154.805299 793.311045,153.200633 C793.32721,152.973388 793.343205,152.745366 793.359028,152.516564 C793.391704,152.044047 793.4221,152.188973 793.45288,152.826244 C794.092928,151.219104 795.010494,149.957137 796.205562,149.040331 C798.64695,147.167174 802.316658,146.23061 807.215018,146.23061 C810.960822,146.23061 813.738064,147.059109 815.546971,148.716132 C817.35607,150.373155 818.270227,153.146826 818.289327,157.037229 C818.370678,173.60746 819.486492,195.148437 821.639387,221.660807 C830.236775,208.836889 836.676668,198.606726 840.963022,190.97001 C838.775618,186.79143 837.666217,181.820436 837.634351,176.056877 C837.607264,171.157852 838.662181,166.402988 840.798652,161.792141 C842.934481,157.181294 845.86718,153.435037 849.596797,150.553257 C853.325719,147.671478 857.567001,146.23061 862.321292,146.23061 C866.499305,146.23061 869.894593,147.7075 872.507628,150.661324 C875.121157,153.615147 876.447141,157.90173 876.485252,163.5212 C876.529226,170.005203 874.849007,177.425673 871.443148,185.782834 C866.896939,197.237849 867.411424,205.288265 876.485252,203.415108 L886.056168,201.31048 C886.110619,191.708515 888.136681,182.7504 892.132829,174.435884 C896.251044,165.862591 902.001646,159.054489 909.38473,154.011375 C916.765403,148.968262 925.136999,146.446743 934.501576,146.446743 C942.85766,146.446743 949.579549,148.93224 954.668657,153.903309 C959.759379,158.874379 962.345881,165.610437 962.427028,174.111686 C962.521929,184.053824 959.03243,192.590967 951.955968,199.723371 C944.87623,206.855775 932.763386,212.511182 915.61607,216.689762 C919.135531,223.317855 925.012338,226.631851 933.245562,226.631851 C939.167705,226.631851 944.030331,225.263026 947.833082,222.525336 C951.635159,219.787646 956.032717,215.176868 961.024814,208.692865 C962.736495,206.53153 964.674797,205.450879 966.839961,205.450879 C968.716436,205.450879 970.204401,206.3154 971.303993,208.044467 C972.403705,209.773535 972.968534,212.150967 972.998407,215.176836 C973.049618,220.364038 971.866043,224.830729 969.447204,228.577042 C965.462191,234.772868 960.198252,239.599776 953.655341,243.057911 C947.11097,246.516046 939.285256,248.245088 930.179059,248.245088 C916.302949,248.245088 905.50279,244.102592 897.781314,235.817477 C893.794044,231.53689 890.823882,226.477478 888.870392,220.639195 C883.673804,221.660813 878.355094,221.660807 872.507628,221.660807 C866.155864,221.660807 855.837998,219.002167 850.197467,217.2731 C846.052483,224.045281 849.861342,219.643535 844.848427,226.847983 C839.116401,235.061055 834.162238,240.68044 829.987465,243.706308 C825.811877,246.732176 821.049808,248.245088 815.701724,248.245088 C809.775468,248.245088 805.103723,245.939699 801.687101,241.328852 C798.498941,237.025056 796.403305,230.398916 795.399865,221.450254 Z M633.257504,227.851279 C634.358459,230.501521 635.287265,232.530215 636.889796,235.64255 C633.257504,237.762243 626.586852,241.835494 622.745132,243.414202 C618.903413,244.99291 613.17888,248.245088 603.92814,248.245088 C591.208372,248.245088 581.789807,242.481616 575.675572,230.954498 C569.565884,219.427381 566.537483,204.514397 566.586867,186.215098 C566.634306,168.636244 568.957588,148.608179 573.551854,126.1303 C578.139549,103.652421 584.870371,84.3447894 593.742544,68.2068252 C602.605505,52.0688611 613.136162,44 625.341737,44 C632.234297,44 637.653599,47.2059314 641.601032,53.6178904 C645.550101,60.0298494 647.52465,69.2153832 647.52351,81.1747673 C647.521875,98.3213543 642.770052,118.205333 633.257504,140.827301 C623.7311,163.449269 610.801332,185.854767 594.460753,208.044467 C595.4608,213.952115 597.11396,218.166654 599.420275,220.688211 C601.726964,223.209768 603.699119,224.61665 607.054891,225.614288 C610.773795,226.719882 615.500936,225.364667 620.421336,223.842729 C625.341737,222.320791 628.082575,220.991472 630.37412,219.643624 C631.167008,221.915678 632.156549,225.201036 633.257504,227.851279 Z M499.064297,225.335057 C503.686265,225.335057 507.702452,223.461928 511.112366,219.715615 C514.521462,215.969302 516.817509,210.566047 518.000795,203.505688 C513.538986,200.479819 510.128322,196.517432 507.768612,191.618407 C505.409653,186.719383 504.242681,181.532258 504.2671,176.056877 C504.277382,173.751453 504.503939,171.446065 504.946732,169.140641 L503.86542,169.140641 C498.098391,169.140641 493.291268,171.914312 489.442885,177.461737 C485.593138,183.009163 483.641956,190.825872 483.590304,200.912099 C483.54972,208.836992 485.070878,214.888638 488.154447,219.067218 C491.23885,223.245798 494.875639,225.335057 499.064297,225.335057 Z M620.582468,65.3971044 C624.605908,65.3971044 626.613379,70.872403 626.604941,81.8231644 C626.594172,95.7997941 623.560261,111.253104 617.498167,128.183557 C611.429474,145.114011 603.264289,162.008189 592.998983,178.866598 C593.317387,162.584545 595.077445,145.582302 598.276723,127.859359 C601.472382,110.136416 605.163523,95.2954752 609.350556,83.336091 C613.534371,71.3767068 617.277499,65.3971044 620.582468,65.3971044 Z M707.029233,227.851279 C708.130188,230.501521 709.058993,232.530215 710.661524,235.64255 C707.029233,237.762243 700.35858,241.835494 696.516861,243.414202 C692.675142,244.99291 686.950608,248.245088 677.699868,248.245088 C664.980101,248.245088 655.561536,242.481616 649.447301,230.954498 C643.337613,219.427381 640.309211,204.514397 640.358595,186.215098 C640.406035,168.636244 642.729317,148.608179 647.323583,126.1303 C651.911277,103.652421 658.6421,84.3447894 667.514272,68.2068252 C676.377234,52.0688611 686.90789,44 699.113466,44 C706.006026,44 711.425327,47.2059314 715.37276,53.6178904 C719.32183,60.0298494 721.296379,69.2153832 721.295238,81.1747673 C721.293603,98.3213543 716.54178,118.205333 707.029233,140.827301 C697.502828,163.449269 684.573061,185.854767 668.232481,208.044467 C669.232529,213.952115 670.885689,218.166654 673.192004,220.688211 C675.498693,223.209768 677.470847,224.61665 680.82662,225.614288 C684.545524,226.719882 689.272664,225.364667 694.193065,223.842729 C699.113466,222.320791 701.591264,220.021163 703.882809,218.673316 C704.675697,220.94537 705.928278,225.201036 707.029233,227.851279 Z M694.354196,65.3971044 C691.049227,65.3971044 687.306099,71.3767068 683.122285,83.336091 C678.935251,95.2954752 675.244111,110.136416 672.048451,127.859359 C668.849173,145.582302 667.089115,162.584545 666.770712,178.866598 C677.036017,162.008189 685.201203,145.114011 691.269896,128.183557 C697.331989,111.253104 700.3659,95.7997941 700.37667,81.8231644 C700.385108,70.872403 698.377637,65.3971044 694.354196,65.3971044 Z M768.835087,65.3971044 C765.530118,65.3971044 761.814128,71.3767068 757.68459,83.336091 C753.551834,95.2954752 749.928047,110.136416 746.812822,127.859359 C743.693979,145.582302 742.011084,162.584545 741.766575,178.866598 C751.95537,162.008189 760.043883,145.114011 766.035738,128.183557 C772.020994,111.253104 774.984771,95.7997941 774.932109,81.8231644 C774.890848,70.872403 772.858528,65.3971044 768.835087,65.3971044 Z M931.0086,163.353264 C925.674358,163.353264 921.194616,166.45113 917.568139,172.646956 C913.940197,178.842782 912.160523,186.335295 912.230166,195.124722 L912.233591,195.556987 C920.731826,193.539742 927.416627,190.513919 932.28807,186.479428 C937.158239,182.444937 939.569333,177.762115 939.522377,172.430824 C939.498265,169.693133 938.721937,167.49581 937.193491,165.838786 C935.665206,164.181763 933.603637,163.353264 931.0086,163.353264 Z M120.755437,257.570642 C120.401208,257.002816 119.895916,256.53033 119.288665,256.199098 C117.344484,255.138621 114.849038,255.752683 113.714932,257.570642 L77.8724607,315.025731 C77.5088824,315.608543 77.317304,316.27117 77.317304,316.945894 C77.317304,319.050552 79.1419269,320.756715 81.3927133,320.756715 L153.077656,320.756715 C153.799226,320.756715 154.50786,320.577574 155.131137,320.237601 C157.075319,319.177124 157.732015,316.843691 156.597909,315.025731 L120.755437,257.570642 Z M170.678919,307.345081 C176.34945,316.434879 173.065969,328.102047 163.34506,333.404429 C160.228674,335.104297 156.685507,336 153.077656,336 L81.3927133,336 C70.1387811,336 61.0156665,327.469186 61.0156665,316.945894 C61.0156665,313.572276 61.9735588,310.259141 63.7914502,307.345081 L99.6339217,249.889993 C105.304452,240.800195 117.781679,237.729888 127.502588,243.03227 C130.538842,244.68843 133.0653,247.050862 134.836448,249.889993 L170.678919,307.345081 Z M120.03606,44.4670504 C115.715314,40.716205 109.167266,41.1740891 105.410586,45.4897631 L73.4931754,82.1564838 C69.7364952,86.4721579 70.193761,93.0113639 74.5145072,96.7622093 L111.224321,128.630047 C115.545067,132.380892 122.093115,131.923008 125.849795,127.607334 L157.767206,90.9406135 C161.523886,86.6249394 161.066621,80.0857334 156.745874,76.334888 L120.03606,44.4670504 Z M130.500785,32.4451747 L167.210599,64.3130123 C178.178647,73.8343891 179.339399,90.4339122 169.803211,101.389085 L137.8858,138.055806 C128.349612,149.010978 111.727644,150.173299 100.759596,140.651923 L64.0497823,108.784085 C53.0817344,99.2627082 51.9209826,82.6631851 61.4571708,71.7080125 L93.3745816,35.0412918 C102.91077,24.0861192 119.532737,22.923798 130.500785,32.4451747 Z M279.05073,173.004419 C279.05073,167.2866 274.409255,162.651392 268.683704,162.651392 L220.038431,162.651392 C214.312881,162.651392 209.671405,167.2866 209.671405,173.004419 L209.671405,221.584007 C209.671405,227.301826 214.312881,231.937034 220.038431,231.937034 L268.683704,231.937034 C274.409255,231.937034 279.05073,227.301826 279.05073,221.584007 L279.05073,173.004419 Z M195.965379,232.217749 C194.523252,228.96662 193.722135,225.368743 193.722135,221.584007 L193.722135,173.004419 C193.722135,169.711889 194.328431,166.560775 195.43561,163.656348 L168.588038,142.601687 C164.74699,139.589423 164.107089,134.110089 167.15462,130.327637 C170.17059,126.584358 175.716863,125.942081 179.542568,128.893072 C179.56118,128.907429 179.579733,128.921859 179.598226,128.936362 L206.812681,150.278743 C210.698696,148.018415 215.217156,146.723658 220.038431,146.723658 L268.683704,146.723658 C283.217793,146.723658 295,158.489956 295,173.004419 L295,221.584007 C295,236.098471 283.217793,247.864768 268.683704,247.864768 L220.038431,247.864768 C215.727401,247.864768 211.658484,246.829564 208.067336,244.994494 L180.079018,267.74358 C180.060374,267.758734 180.041666,267.773813 180.022896,267.788816 C176.249312,270.804965 170.693087,270.259113 167.612719,266.569622 C164.499389,262.84065 165.043528,257.35123 168.831702,254.272177 L195.965379,232.217749 Z" id="path-1"></path>
    </defs>
    <g id="Page-1" stroke="none" stroke-width="1" fill="none" fill-rule="evenodd">
        <g id="Artboard" transform="translate(-131.000000, -162.000000)">
            <g id="logo" transform="translate(76.000000, 136.000000)">
                <g id="solllve">
                    <use fill="#DB317F" fill-rule="evenodd" xlink:href="#path-1"></use>
                    <use fill="#D0317A" fill-opacity="1" xlink:href="#path-1"></use>
                </g>
            </g>
        </g>
    </g>
</svg>
